<?xml version="1.0" encoding="utf-8"?>
<!-- Generator: Adobe Illustrator 24.0.2, SVG Export Plug-In . SVG Version: 6.00 Build 0)  -->
<svg version="1.1" id="Layer_1" xmlns="http://www.w3.org/2000/svg" xmlns:xlink="http://www.w3.org/1999/xlink" x="0px" y="0px"
	 width="324px" height="324px" viewBox="0 0 324 324" style="enable-background:new 0 0 324 324;" xml:space="preserve">
<style type="text/css">
	.st0{fill:#FFFFFF;}
	.st1{fill:#93C3F5;}
</style>
<g>
	<path class="st0" d="M21.4,303.1c0-94.1,0-188.2,0-282.3c94.1,0,188.2,0,282.3,0c0,94.1,0,188.1,0,282.3
		C209.6,303.1,115.5,303.1,21.4,303.1z M273.9,267c-6,0-11.9,0-17.9,0c0-2.1,0-4,0-6c2,0,3.9,0,5.9,0c0-2.1,0-4,0-6
		c4.1,0,8,0,11.9,0c0-6,0-11.9,0-17.9c-2,0-3.9,0-6,0c0,4,0,7.9,0,12c-2,0-4,0-6,0c0,2.1,0,4,0,5.9c-2,0-3.9,0-5.9,0
		c0-2,0-3.9,0-5.9c-2,0-4,0-5.9,0c0-2.1,0-4,0-6c4,0,7.9,0,11.8,0c0-2.1,0-4,0-6c-2,0-3.9,0-5.8,0c0-2,0-3.9,0-6c6,0,11.9,0,17.9,0
		c0-4.1,0-8,0-12c-6,0-11.9,0-18,0c0-2.1,0-4,0-6c-2,0-3.9,0-5.9,0c0-6,0-11.9,0-18c2,0,3.9,0,5.9,0c0-2.1,0-4,0-6c-4,0-7.9,0-12,0
		c0-2.1,0-4,0-6c-2,0-3.9,0-5.9,0c0-2,0-3.9,0-6c2,0,3.9,0,5.9,0c0-4.1,0-8,0-12c-2,0-3.9,0-6,0c0-2.1,0-4,0-5.8c-2.1,0-4,0-5.9,0
		c0,2,0,3.9,0,5.9c2,0,3.9,0,5.9,0c0,4.1,0,8,0,12c-2,0-3.9,0-5.9,0c0,2.1,0,4,0,6c2,0,3.9,0,5.8,0c0,2.1,0,4,0,5.9
		c-4,0-7.9,0-11.9,0c0-2,0-3.9,0-5.8c-2.1,0-4,0-6,0c0,2,0,3.9,0,5.8c-2,0-4,0-6,0c0-2,0-3.9,0-5.9c-2,0-3.9,0-5.9,0c0-2,0-3.9,0-6
		c-2,0-4,0-5.9,0c0-2.1,0-4,0-6c2,0,3.9,0,6,0c0-4.1,0-8,0-11.9c2,0,3.9,0,5.9,0c0,2,0,3.9,0,5.9c2,0,4,0,5.9,0c0,2.1,0,4,0,6
		c-2,0-3.9,0-5.8,0c0,2.1,0,4,0,5.9c2,0,3.9,0,6,0c0-2,0-3.9,0-5.9c2,0,3.9,0,5.9,0c0-2,0-3.9,0-6c-2,0-3.9,0-5.9,0
		c0-4.1,0-8,0-11.9c8,0,15.9,0,23.9,0c0,2,0,3.9,0,6c2.1,0,4,0,6,0c0,2,0,3.9,0,5.9c2.1,0,4,0,5.9,0c0-2,0-3.9,0-6c-2,0-3.9,0-5.9,0
		c0-2.1,0-4,0-5.9c6,0,11.9,0,17.9,0c0,2,0,3.9,0,5.8c2.1,0,4,0,6,0c0-2,0-3.9,0-5.9c-2,0-3.9,0-5.9,0c0-2.1,0-4,0-6
		c2,0,3.9,0,5.8,0c0-8.1,0-16,0-24c-2,0-3.9,0-5.8,0c0-2,0-3.9,0-6c2,0,3.9,0,5.9,0c0-4.1,0-8,0-12c-2,0-3.9,0-6,0c0-2.1,0-4,0-5.9
		c-2,0-3.9,0-6,0c0,2,0,3.9,0,5.8c-8.1,0-16,0-24,0c0-2,0-3.9,0-6c-4,0-8,0-12,0c0-4.1,0-8,0-12c-2,0-3.9,0-5.9,0c0-2,0-3.9,0-5.9
		c-4.1,0-8,0-11.9,0c0,4,0,7.9,0,11.8c2,0,3.9,0,6,0c0-2,0-3.9,0-5.8c2,0,3.9,0,5.9,0c0,8,0,15.9,0,24c-2,0-3.9,0-5.8,0
		c0,2,0,3.9,0,6c2,0,3.9,0,5.9,0c0,2.1,0,4,0,5.9c-4,0-7.9,0-11.9,0c0-2,0-3.9,0-5.8c-2.1,0-4,0-6,0c0,4,0,7.9,0,11.9
		c-2,0-4,0-5.9,0c0,2.1,0,4,0,6c2,0,3.9,0,5.9,0c0,2,0,4,0,5.9c2.1,0,4,0,6,0c0-2,0-3.9,0-5.8c2.1,0,4,0,6,0c0,2,0,3.9,0,5.9
		c2,0,4,0,5.9,0c0,4.1,0,8,0,11.9c-4,0-7.9,0-11.9,0c0-2,0-3.9,0-5.8c-2.1,0-4,0-6,0c0,2,0,3.9,0,5.9c-2,0-4,0-5.9,0c0,2.1,0,4,0,6
		c2,0,3.9,0,5.8,0c0,4.1,0,8,0,12c-2,0-3.9,0-5.9,0c0,2,0,3.9,0,6c2,0,3.9,0,6,0c0,2.1,0,4,0,6c2,0,4,0,5.9,0c0,2.1,0,4,0,6
		c-2,0-3.9,0-5.9,0c0,2,0,3.9,0,5.9c2,0,3.9,0,6,0c0-2,0-3.9,0-5.8c2,0,4,0,6,0c0,4,0,7.9,0,11.9c2,0,3.9,0,5.9,0c0,2.1,0,4,0,6
		c-2,0-3.9,0-5.9,0c0,2,0,3.9,0,6c-4,0-8,0-12,0c0,2.1,0,4,0,5.9c-2,0-3.9,0-6,0c0-4,0-7.9,0-12c-4.1,0-8,0-12,0c0-2,0-3.9,0-6
		c-2,0-4,0-6,0c0-2.1,0-4,0-5.9c-6.1,0-12,0-17.9,0c0,4,0,7.9,0,11.8c2,0,3.9,0,5.9,0c0-2,0-3.9,0-5.8c2,0,4,0,5.9,0c0,4,0,7.9,0,12
		c-8,0-15.9,0-23.8,0c0,2.1,0,4,0,6c2,0,3.9,0,5.9,0c0,2,0,3.9,0,6c2,0,4,0,5.9,0c0,4.1,0,8,0,11.9c-2,0-3.9,0-6,0c0-2,0-3.9,0-5.9
		c-2,0-3.9,0-5.9,0c0-2,0-3.9,0-6c-4,0-8,0-11.9,0c0-2.1,0-4,0-6c2,0,3.9,0,5.8,0c0-4.1,0-8,0-12c-2,0-3.9,0-5.9,0c0-2,0-3.9,0-5.9
		c-2.1,0-4,0-6,0c0,4,0,7.9,0,11.8c-2,0-4,0-6,0c0-2,0-3.9,0-5.9c-2,0-3.9,0-5.9,0c0-4,0-7.9,0-12c-2,0-4,0-6,0c0-2.1,0-4,0-6
		c-2,0-4,0-6,0c0-2.1,0-4,0-6c-6,0-11.9,0-17.9,0c0-2,0-3.9,0-6c2,0,3.9,0,6,0c0-2.1,0-4,0-6c2,0,4,0,6,0c0-2.1,0-4,0-5.9
		c2,0,3.9,0,5.9,0c0,4,0,7.9,0,11.8c2.1,0,4,0,6,0c0-2,0-3.9,0-5.9c2,0,3.9,0,5.9,0c0,2,0,3.9,0,5.9c2,0,4,0,6,0c0-2,0-3.9,0-5.9
		c-2,0-3.9,0-5.9,0c0-2.1,0-4,0-6c4,0,7.9,0,11.8,0c0-2.1,0-4,0-6c-2,0-3.9,0-5.8,0c0-4,0-7.9,0-12c2,0,3.9,0,5.9,0
		c0-6.1,0-12,0-18.1c-2,0-3.9,0-5.8,0c0-6.1,0-12,0-18c2,0,3.9,0,5.9,0c0-4,0-7.9,0-11.9c-4,0-7.9,0-12,0c0,2,0,3.9,0,5.8
		c-2,0-4,0-5.9,0c0-4,0-7.9,0-11.9c2,0,3.9,0,6,0c0-4,0-8,0-11.9c2.1,0,4,0,6,0c0,4,0,7.9,0,11.8c2.1,0,4,0,6,0c0-6,0-11.9,0-17.9
		c2,0,3.9,0,5.9,0c0-2,0-4,0-5.9c-2,0-3.9,0-6,0c0,2,0,3.9,0,5.8c-2.1,0-4,0-6,0c0-2,0-3.9,0-5.9c-2,0-3.9,0-5.9,0c0-4.1,0-8,0-11.9
		c2,0,3.9,0,5.9,0c0,2,0,3.9,0,5.8c2.1,0,4,0,6,0c0-2,0-3.9,0-5.9c2,0,3.9,0,6,0c0,2,0,3.9,0,5.9c4.1,0,8,0,11.9,0c0-4,0-7.9,0-11.9
		c-6,0-11.9,0-18,0c0,2,0,3.9,0,5.8c-2,0-4,0-6,0c0-2,0-3.9,0-5.8c-2.1,0-4,0-6,0c0,2,0,3.9,0,5.9c-6,0-11.9,0-17.9,0c0,2,0,3.9,0,6
		c2,0,3.9,0,5.9,0c0,8.1,0,16,0,24c-2,0-3.9,0-6,0c0,6.1,0,12,0,17.9c-2,0-3.9,0-5.9,0c0-2,0-3.9,0-5.8c-2.1,0-4,0-6,0
		c0,2,0,3.9,0,5.9c-2,0-4,0-6,0c0,2.1,0,4,0,6c-2,0-4,0-5.9,0c0,4,0,7.9,0,11.9c2,0,3.9,0,6,0c0,4.1,0,8,0,12c2,0,4,0,6,0
		c0,2.1,0,4,0,6c4,0,8,0,12,0c0,4.1,0,8,0,12c2,0,3.9,0,5.9,0c0,2.1,0,4,0,6c-2,0-3.9,0-5.9,0c0,2,0,3.9,0,5.9c-2,0-4,0-6,0
		c0-2,0-3.9,0-5.9c-2,0-3.9,0-5.9,0c0-2.1,0-4,0-6c2,0,3.9,0,5.8,0c0-2,0-3.9,0-5.9c-2,0-3.9,0-6,0c0,2,0,3.9,0,6c-2,0-4,0-6,0
		c0,4.1,0,8,0,11.9c-4,0-7.9,0-11.9,0c0-2,0-3.9,0-5.9c2,0,3.9,0,5.9,0c0-2.1,0-4,0-5.9c-2,0-3.9,0-6,0c0,2,0,3.9,0,5.8
		c-2,0-3.9,0-5.9,0c0-2,0-3.9,0-5.8c-2.1,0-4,0-6,0c0,2,0,3.9,0,6c-2,0-4,0-5.9,0c0,2.1,0,4,0,6c2,0,3.9,0,5.8,0c0,2.1,0,4,0,6
		c-2,0-3.9,0-5.8,0c0,2,0,3.9,0,5.9c2,0,3.9,0,6,0c0-2,0-3.9,0-5.8c4,0,7.9,0,11.9,0c0,2,0,3.9,0,6c-2,0-3.9,0-5.8,0c0,4,0,7.9,0,12
		c2,0,3.9,0,5.9,0c0,2.1,0,4,0,6c-2,0-3.9,0-5.8,0c0,2.1,0,4,0,6c2,0,3.9,0,5.8,0c0,2.1,0,4,0,5.9c-4,0-7.9,0-11.9,0
		c0-2,0-3.9,0-5.8c-2.1,0-4,0-5.9,0c0,4,0,7.9,0,11.9c6,0,11.9,0,17.8,0c0,2.1,0,4,0,6c-4,0-7.9,0-11.8,0c0,2,0,3.9,0,5.9
		c6,0,11.9,0,18,0c0-4,0-7.9,0-11.8c6,0,11.9,0,17.9,0c0,2,0,3.9,0,6c-4,0-7.9,0-11.8,0c0,2,0,3.9,0,6c6,0,11.9,0,18,0
		c0,2.1,0,4,0,5.9c2.1,0,4,0,6,0c0-4,0-7.9,0-11.8c4,0,7.9,0,11.9,0c0,2,0,3.9,0,5.9c4,0,8,0,11.9,0c0,2.1,0,4,0,6c-6,0-11.9,0-18,0
		c0,4.1,0,8,0,12c-2,0-3.9,0-5.9,0c0,4,0,7.9,0,11.9c2,0,3.9,0,6,0c0-4,0-7.9,0-11.8c2,0,4,0,6,0c0,4,0,7.9,0,11.9c4,0,7.9,0,11.9,0
		c0,2,0,3.9,0,6c2,0,4,0,6,0c0,4.1,0,8,0,11.9c2.1,0,4,0,6,0c0-2,0-3.9,0-6c4,0,8,0,12,0c0-2.1,0-4,0-6c2,0,3.9,0,6,0
		c0-4,0-7.9,0-11.9c2,0,4,0,6,0c0,2,0,3.9,0,6c2,0,4,0,5.9,0c0,4.1,0,8,0,12c-4,0-7.9,0-11.9,0c0,2,0,3.9,0,5.9c4,0,7.9,0,12,0
		c0-2,0-3.9,0-5.8c4,0,8,0,12,0c0,2,0,3.9,0,5.8c6,0,11.9,0,17.9,0c0-2,0-3.9,0-6c-6,0-11.9,0-17.9,0c0-4,0-7.9,0-12c-2,0-4,0-5.9,0
		c0-2.1,0-4,0-6c2,0,3.9,0,5.8,0c0-4,0-8,0-12c-2,0-3.9,0-5.9,0c0-2,0-3.9,0-6c-2.1,0-4,0-6,0c0-2.1,0-4,0-6c-4,0-7.9,0-11.9,0
		c0-2,0-4,0-5.9c6,0,11.9,0,17.9,0c0,2,0,3.9,0,5.9c2,0,4,0,6,0c0,2.1,0,4,0,5.9c2.1,0,4,0,5.9,0c0-2,0-3.9,0-5.9c-2,0-3.9,0-5.8,0
		c0-2,0-3.9,0-5.9c4,0,7.9,0,12,0c0,2,0,3.9,0,5.9c6,0,11.9,0,17.9,0c0,2.1,0,4,0,6c-2,0-3.9,0-6,0c0,2,0,4,0,5.9c-2.1,0-4,0-6,0
		c0-2,0-3.9,0-5.8c-2.1,0-4,0-6,0c0,2,0,3.9,0,5.9c-2,0-3.9,0-5.9,0c0,2,0,3.9,0,6c6,0,11.9,0,18,0c0,2.1,0,4,0,6c2,0,4,0,5.9,0
		c0,2.1,0,4,0,6c-2,0-3.9,0-5.9,0c0,2,0,3.9,0,6c2,0,3.9,0,5.9,0c0,2.1,0,4,0,6c-2,0-3.9,0-5.9,0c0,2.1,0,4,0,5.9c6,0,11.9,0,18,0
		c0-6,0-11.9,0-17.8c2,0,3.9,0,5.9,0c0,2,0,3.9,0,5.9c2,0,4,0,5.9,0c0,2.1,0,4,0,6c-2,0-3.9,0-5.8,0c0,2.1,0,4,0,5.9c2,0,3.9,0,6,0
		c0-2,0-3.9,0-5.8c2.1,0,4,0,6,0c0,2,0,3.9,0,5.8c2.1,0,4,0,6,0c0-2,0-3.9,0-5.8c2,0,3.9,0,5.9,0c0,2,0,3.9,0,5.8c6.1,0,12,0,18,0
		C273.9,271,273.9,269.1,273.9,267z M207.9,69c-2,0-3.9,0-5.9,0c0-2.1,0-4,0-5.9c-2.1,0-4,0-6,0c0,2,0,3.9,0,6c-2,0-4,0-6,0
		c0,2.1,0,4,0,5.9c-2,0-3.9,0-5.9,0c0-2,0-3.9,0-5.9c-6,0-12,0-18,0c0-2.1,0-4,0-5.9c-4.1,0-8,0-12,0c0,2,0,3.9,0,5.9
		c-4,0-7.9,0-12,0c0,4,0,8,0,12c-2.1,0-4,0-5.9,0c0,4,0,7.9,0,12c2,0,3.9,0,5.9,0c0,2.1,0,4,0,6c-2,0-3.9,0-5.8,0c0,8.1,0,16,0,23.9
		c4,0,7.9,0,11.8,0c0-4,0-7.9,0-12c-2,0-3.9,0-5.8,0c0-2,0-3.9,0-6c2,0,3.9,0,6,0c0-2.1,0-4,0-5.9c2,0,3.9,0,5.9,0c0,2,0,3.9,0,5.8
		c4.1,0,8,0,12,0c0-2,0-3.9,0-6c-2,0-3.9,0-5.9,0c0-2.1,0-4,0-6c2,0,3.9,0,6,0c0-2,0-4,0-5.9c2.1,0,4,0,6,0c0,2,0,3.9,0,5.8
		c2.1,0,4,0,6,0c0-2,0-3.9,0-5.8c2,0,3.9,0,5.9,0c0,4,0,7.9,0,12c-4,0-7.9,0-12,0c0,4,0,8,0,12c-2.1,0-4,0-6,0c0,2,0,3.9,0,6
		c-2,0-4,0-5.9,0c0,2.1,0,4,0,6c2,0,3.9,0,5.9,0c0,2,0,3.9,0,5.9c2.1,0,4,0,6,0c0-2,0-3.9,0-5.8c2,0,4,0,6,0c0,2,0,3.9,0,5.8
		c2.1,0,4,0,6,0c0-2,0-3.9,0-5.9c4,0,7.9,0,11.9,0c0-2,0-3.9,0-6c-2,0-3.9,0-5.9,0c0-2.1,0-4,0-6c2,0,3.9,0,5.8,0c0-2.1,0-4,0-6
		c-2,0-3.9,0-5.8,0c0-2,0-3.9,0-6c2,0,3.9,0,6,0c0-2.1,0-4,0-6c2,0,4,0,6,0c0-6.1,0-12,0-18c2,0,3.9,0,5.9,0
		C207.9,73,207.9,71.2,207.9,69z M93.9,92.9c0-14,0-27.9,0-41.9c-14,0-27.9,0-41.9,0c0,14,0,27.9,0,41.9
		C65.9,92.9,79.9,92.9,93.9,92.9z M232,51.1c0,14,0,27.9,0,41.9c14,0,27.9,0,41.9,0c0-14,0-27.9,0-41.9
		C259.9,51.1,246,51.1,232,51.1z M52,231.1c0,14,0,27.9,0,41.9c14,0,27.9,0,41.9,0c0-14,0-27.9,0-41.9
		C79.9,231.1,65.9,231.1,52,231.1z M267.9,200.9c2.1,0,4,0,5.9,0c0-2,0-3.9,0-5.9c-2,0-3.9,0-5.9,0c0-4,0-8,0-12c-2.1,0-4,0-5.9,0
		c0-4,0-8,0-11.9c2,0,3.9,0,5.9,0c0,2,0,3.9,0,5.8c2.1,0,4,0,5.9,0c0-4,0-7.9,0-11.8c-4,0-7.9,0-12,0c0,2,0,3.9,0,6c-4,0-8,0-11.9,0
		c0,4,0,7.9,0,11.9c4,0,7.9,0,11.9,0c0,4.1,0,8,0,12c2,0,4,0,6,0C267.9,197.1,267.9,199,267.9,200.9z M64,141c0-2.1,0-4,0-6
		c2,0,3.9,0,5.9,0c0-2.1,0-4,0-5.9c-4,0-7.9,0-12,0c0,2,0,3.9,0,5.9c-2,0-3.9,0-5.9,0c0,4,0,7.9,0,11.9c2,0,3.9,0,6,0
		c0-2,0-3.9,0-5.8c2,0,4,0,6,0c0,2,0,3.9,0,5.8c2,0,3.9,0,5.9,0c0-2,0-3.9,0-5.9C67.9,141,66,141,64,141z M69.8,117c0-2,0-3.9,0-5.9
		c-2,0-3.9,0-5.9,0c0-4.1,0-8,0-11.9c-4.1,0-8,0-11.9,0c0,4,0,7.9,0,12c4,0,7.9,0,12,0c0,2.1,0,4,0,5.9C66,117,67.9,117,69.8,117z
		 M202,56.9c8,0,16,0,23.9,0c0-2,0-3.9,0-5.8c-8,0-15.9,0-23.9,0C202,53.1,202,54.9,202,56.9z M189.8,62.9c0-4,0-7.9,0-11.8
		c-6,0-11.9,0-17.9,0c0,2,0,3.8,0,5.9c4,0,7.9,0,11.9,0c0,2.1,0,4,0,5.9C185.9,62.9,187.9,62.9,189.8,62.9z M123.8,261.3
		c-4,0-8,0-11.9,0c0,4,0,7.9,0,11.8c2,0,3.9,0,6,0c0-2,0-3.9,0-5.9c2,0,3.9,0,5.9,0C123.8,265,123.8,263.1,123.8,261.3z M219.9,69
		c2.1,0,4,0,5.9,0c0-2,0-4,0-5.9c-4,0-7.9,0-11.8,0c0,4,0,7.9,0,11.8c2,0,3.9,0,5.9,0C219.9,73,219.9,71.1,219.9,69z M153.8,195.1
		c-4,0-8,0-11.9,0c0,2,0,3.9,0,5.9c2,0,3.9,0,5.9,0c0,2,0,4,0,5.9c2.1,0,4,0,5.9,0C153.8,203,153.8,199.1,153.8,195.1z M118,189.1
		c2,0,3.9,0,6,0c0,2.1,0,4,0,5.9c2,0,4,0,5.9,0c0-4,0-7.9,0-11.8c-4,0-7.9,0-11.9,0C118,185.1,118,186.9,118,189.1z M100,273
		c2,0,4,0,5.9,0c0-4,0-7.9,0-11.8c-2,0-3.9,0-5.9,0C100,265.1,100,269,100,273z M154,56.9c2,0,3.9,0,5.9,0c0-2,0-3.9,0-5.8
		c-2,0-3.9,0-5.9,0C154,53.1,154,55,154,56.9z M267.8,213c0-2,0-3.9,0-5.8c-2,0-3.9,0-5.9,0c0,2,0,3.9,0,5.8
		C264,213,265.9,213,267.8,213z M195.9,201c0-2,0-3.9,0-5.8c-2,0-3.9,0-5.9,0c0,2,0,3.9,0,5.8C192,201,193.9,201,195.9,201z
		 M52,183.1c0,2,0,3.9,0,5.8c2,0,3.9,0,5.9,0c0-2,0-3.9,0-5.8C55.9,183.1,53.9,183.1,52,183.1z M195.9,249.3c-2,0-4,0-5.9,0
		c0,2,0,3.9,0,5.8c2,0,3.9,0,5.9,0C195.9,253,195.9,251.1,195.9,249.3z"/>
	<path d="M273.9,267c0,2.1,0,4,0,6c-6,0-11.9,0-18,0c0-2,0-3.9,0-5.8c-2,0-3.9,0-5.9,0c0,1.9,0,3.8,0,5.8c-2.1,0-4,0-6,0
		c0-1.9,0-3.8,0-5.8c-2,0-3.9,0-6,0c0,1.9,0,3.8,0,5.8c-2.1,0-4,0-6,0c0-1.9,0-3.8,0-5.9c1.9,0,3.8,0,5.8,0c0-2.1,0-4,0-6
		c-1.9,0-3.9,0-5.9,0c0-2.1,0-4,0-5.9c-2,0-3.9,0-5.9,0c0,5.9,0,11.8,0,17.8c-6.1,0-12,0-18,0c0-1.9,0-3.8,0-5.9c1.9,0,3.9,0,5.9,0
		c0-2.1,0-4,0-6c-2,0-3.9,0-5.9,0c0-2.1,0-4,0-6c2,0,3.9,0,5.9,0c0-2,0-3.9,0-6c-1.9,0-3.9,0-5.9,0c0-2.1,0-4,0-6c-6.1,0-12,0-18,0
		c0-2.1,0-4,0-6c2,0,3.9,0,5.9,0c0-2,0-3.9,0-5.9c2,0,4,0,6,0c0,1.9,0,3.8,0,5.8c2,0,3.9,0,6,0c0-1.9,0-3.8,0-5.9c2.1,0,4,0,6,0
		c0-2,0-4,0-6c-6,0-11.9,0-17.9,0c0-2,0-3.9,0-5.9c-4,0-8,0-12,0c0,2,0,3.8,0,5.9c2,0,3.9,0,5.8,0c0,2,0,3.9,0,5.9
		c-1.9,0-3.8,0-5.9,0c0-1.9,0-3.8,0-5.9c-2,0-4,0-6,0c0-2.1,0-4,0-5.9c-6,0-11.9,0-17.9,0c0,1.9,0,3.9,0,5.9c3.9,0,7.8,0,11.9,0
		c0,2,0,3.9,0,6c2.1,0,4,0,6,0c0,2.1,0,4,0,6c2,0,3.9,0,5.9,0c0,4.1,0,8,0,12c-1.9,0-3.8,0-5.8,0c0,2,0,3.9,0,6c2,0,3.9,0,5.9,0
		c0,4.1,0,8,0,12c6,0,11.9,0,17.9,0c0,2.1,0,4,0,6c-5.9,0-11.8,0-17.9,0c0-1.9,0-3.8,0-5.8c-4.1,0-8,0-12,0c0,1.9,0,3.8,0,5.8
		c-4.1,0-8,0-12,0c0-2,0-3.9,0-5.9c4,0,7.9,0,11.9,0c0-4,0-7.9,0-12c-1.9,0-3.8,0-5.9,0c0-2.1,0-4,0-6c-2,0-4,0-6,0
		c0,4,0,7.9,0,11.9c-2,0-3.9,0-6,0c0,2,0,3.9,0,6c-4.1,0-8,0-12,0c0,2.1,0,4,0,6c-2.1,0-4,0-6,0c0-4,0-7.9,0-11.9c-2,0-4,0-6,0
		c0-2.1,0-4,0-6c-4,0-7.9,0-11.9,0c0-4,0-7.9,0-11.9c-2,0-4,0-6,0c0,3.9,0,7.9,0,11.8c-2.1,0-4,0-6,0c0-4,0-7.9,0-11.9
		c2,0,3.9,0,5.9,0c0-4,0-7.9,0-12c6,0,12,0,18,0c0-2.1,0-4,0-6c-4,0-7.9,0-11.9,0c0-2.1,0-4,0-5.9c-4,0-7.9,0-11.9,0
		c0,3.9,0,7.8,0,11.8c-2,0-4,0-6,0c0-1.9,0-3.8,0-5.9c-6.1,0-12,0-18,0c0-2.1,0-4,0-6c3.9,0,7.8,0,11.8,0c0-2,0-4,0-6
		c-5.9,0-11.8,0-17.9,0c0,3.9,0,7.8,0,11.8c-6,0-12,0-18,0c0-1.9,0-3.8,0-5.9c3.9,0,7.8,0,11.8,0c0-2,0-4,0-6c-5.9,0-11.8,0-17.8,0
		c0-4,0-7.9,0-11.9c1.9,0,3.8,0,5.9,0c0,1.9,0,3.8,0,5.8c4,0,7.9,0,11.9,0c0-1.9,0-3.8,0-5.9c-1.9,0-3.8,0-5.8,0c0-2,0-3.9,0-6
		c1.9,0,3.8,0,5.8,0c0-2.1,0-4,0-6c-1.9,0-3.9,0-5.9,0c0-4.1,0-8,0-12c1.9,0,3.8,0,5.8,0c0-2,0-4,0-6c-3.9,0-7.8,0-11.9,0
		c0,1.9,0,3.8,0,5.8c-2,0-4,0-6,0c0-1.9,0-3.8,0-5.9c1.9,0,3.8,0,5.8,0c0-2,0-4,0-6c-1.9,0-3.8,0-5.8,0c0-2,0-3.9,0-6
		c1.9,0,3.8,0,5.9,0c0-2.1,0-4,0-6c2,0,4,0,6,0c0,1.9,0,3.8,0,5.8c2,0,3.9,0,5.9,0c0-1.9,0-3.8,0-5.8c2,0,4,0,6,0c0,1.9,0,3.8,0,5.9
		c-1.9,0-3.9,0-5.9,0c0,2.1,0,4,0,5.9c3.9,0,7.8,0,11.9,0c0-3.9,0-7.8,0-11.9c2,0,4,0,6,0c0-2.1,0-4,0-6c2,0,4,0,6,0
		c0,1.9,0,3.8,0,5.9c-1.9,0-3.8,0-5.8,0c0,2,0,4,0,6c1.9,0,3.8,0,5.9,0c0,2,0,3.9,0,5.9c2,0,4,0,6,0c0-1.9,0-3.8,0-5.9
		c2,0,3.9,0,5.9,0c0-2,0-4,0-6c-1.9,0-3.8,0-5.9,0c0-4,0-7.9,0-12c-4.1,0-8,0-12,0c0-2.1,0-4,0-6c-2,0-4,0-6,0c0-4.1,0-8,0-12
		c-2,0-4,0-6,0c0-4,0-7.9,0-11.9c1.9,0,3.9,0,5.9,0c0-2.1,0-4,0-6c2,0,4,0,6,0c0-2.1,0-4,0-5.9c2.1,0,4,0,6,0c0,2,0,3.9,0,5.8
		c2,0,3.9,0,5.9,0c0-5.9,0-11.8,0-17.9c2,0,4,0,6,0c0-8.1,0-16,0-24c-2,0-3.9,0-5.9,0c0-2.1,0-4,0-6c6,0,11.9,0,17.9,0
		c0-2,0-3.9,0-5.9c2,0,4,0,6,0c0,1.9,0,3.8,0,5.8c2,0,4,0,6,0c0-1.9,0-3.8,0-5.8c6.1,0,12,0,18,0c0,4,0,7.9,0,11.9
		c-4,0-7.9,0-11.9,0c0-2,0-3.9,0-5.9c-2.1,0-4,0-6,0c0,2,0,3.9,0,5.9c-2,0-4,0-6,0c0-2,0-3.9,0-5.8c-2,0-3.9,0-5.9,0
		c0,3.9,0,7.9,0,11.9c2,0,3.9,0,5.9,0c0,2,0,3.9,0,5.9c2,0,3.9,0,6,0c0-1.9,0-3.8,0-5.8c2.1,0,4,0,6,0c0,1.9,0,3.9,0,5.9
		c-1.9,0-3.8,0-5.9,0c0,6,0,11.9,0,17.9c-2,0-4,0-6,0c0-3.9,0-7.8,0-11.8c-2,0-3.9,0-6,0c0,3.9,0,7.9,0,11.9c-2.1,0-4,0-6,0
		c0,4,0,7.9,0,11.9c1.9,0,3.9,0,5.9,0c0-1.9,0-3.8,0-5.8c4.1,0,8,0,12,0c0,4,0,7.9,0,11.9c-2,0-3.9,0-5.9,0c0,6,0,11.9,0,18
		c1.9,0,3.8,0,5.8,0c0,6.1,0,12,0,18.1c-1.9,0-3.9,0-5.9,0c0,4.1,0,8,0,12c2,0,3.9,0,5.8,0c0,2,0,3.9,0,6c-3.9,0-7.8,0-11.8,0
		c0,2.1,0,4,0,6c2,0,3.9,0,5.9,0c0,2.1,0,4,0,5.9c-2,0-3.9,0-6,0c0-2,0-3.9,0-5.9c-2,0-3.9,0-5.9,0c0,2,0,3.9,0,5.9c-2.1,0-4,0-6,0
		c0-4,0-7.9,0-11.8c-2,0-3.9,0-5.9,0c0,1.9,0,3.8,0,5.9c-2,0-4,0-6,0c0,2.1,0,4,0,6c-2,0-4,0-6,0c0,2.1,0,4,0,6c6,0,11.9,0,17.9,0
		c0,2,0,3.9,0,6c2.1,0,4,0,6,0c0,2.1,0,4,0,6c2,0,4,0,6,0c0,4.1,0,8,0,12c2,0,3.9,0,5.9,0c0,2,0,3.9,0,5.9c2,0,4,0,6,0
		c0-3.9,0-7.8,0-11.8c2,0,4,0,6,0c0,2,0,3.9,0,5.9c2,0,3.9,0,5.9,0c0,4,0,7.9,0,12c-1.9,0-3.8,0-5.8,0c0,2.1,0,4,0,6
		c4,0,7.9,0,11.9,0c0,2.1,0,4,0,6c2,0,3.9,0,5.9,0c0,2,0,3.9,0,5.9c2,0,4,0,6,0c0-3.9,0-7.8,0-11.9c-2,0-3.9,0-5.9,0c0-2.1,0-4,0-6
		c-2,0-3.9,0-5.9,0c0-2,0-3.9,0-6c7.9,0,15.8,0,23.8,0c0-4.1,0-8,0-12c-1.9,0-3.9,0-5.9,0c0,2,0,3.9,0,5.8c-2,0-3.9,0-5.9,0
		c0-3.9,0-7.8,0-11.8c5.9,0,11.8,0,17.9,0c0,1.9,0,3.8,0,5.9c2.1,0,4,0,6,0c0,2.1,0,4,0,6c4,0,7.9,0,12,0c0,4.1,0,8,0,12
		c2.1,0,4,0,6,0c0-2,0-3.9,0-5.9c4,0,8,0,12,0c0-2.1,0-4,0-6c2,0,3.9,0,5.9,0c0-2,0-4,0-6c-1.9,0-3.8,0-5.9,0c0-4,0-7.9,0-11.9
		c-2,0-4,0-6,0c0,1.9,0,3.8,0,5.8c-2.1,0-4,0-6,0c0-2,0-3.9,0-5.9c2,0,3.9,0,5.9,0c0-2,0-3.9,0-6c-1.9,0-3.8,0-5.9,0c0-2.1,0-4,0-6
		c-2,0-4,0-6,0c0-2.1,0-4,0-6c2,0,3.9,0,5.9,0c0-4,0-8,0-12c-2,0-3.9,0-5.8,0c0-2,0-3.9,0-6c1.9,0,3.9,0,5.9,0c0-2.1,0-4,0-5.9
		c2.1,0,4,0,6,0c0,2,0,3.9,0,5.8c4,0,7.9,0,11.9,0c0-3.9,0-7.8,0-11.9c-1.9,0-3.9,0-5.9,0c0-2.1,0-4,0-5.9c-2,0-3.9,0-6,0
		c0,1.9,0,3.8,0,5.8c-2.1,0-4,0-6,0c0-2,0-3.9,0-5.9c-2.1,0-4,0-5.9,0c0-2,0-3.9,0-6c1.9,0,3.9,0,5.9,0c0-4.1,0-8,0-11.9
		c2.1,0,4,0,6,0c0,2,0,3.9,0,5.8c4,0,7.9,0,11.9,0c0-1.9,0-3.8,0-5.9c-1.9,0-3.9,0-5.9,0c0-2.1,0-4,0-6c1.9,0,3.8,0,5.8,0
		c0-8,0-16,0-24c-1.9,0-3.8,0-5.9,0c0,1.9,0,3.8,0,5.8c-2.1,0-4,0-6,0c0-3.9,0-7.8,0-11.8c4,0,7.9,0,11.9,0c0,2,0,3.9,0,5.9
		c2,0,3.9,0,5.9,0c0,4,0,7.9,0,12c4.1,0,8,0,12,0c0,2.1,0,4,0,6c8,0,15.9,0,24,0c0-1.9,0-3.8,0-5.8c2.1,0,4,0,6,0c0,1.9,0,3.8,0,5.9
		c2.1,0,4,0,6,0c0,4.1,0,8,0,12c-1.9,0-3.9,0-5.9,0c0,2.1,0,4,0,6c2,0,3.9,0,5.8,0c0,8,0,15.9,0,24c-1.9,0-3.8,0-5.8,0
		c0,2.1,0,4,0,6c2,0,3.9,0,5.9,0c0,2.1,0,4,0,5.9c-2,0-3.9,0-6,0c0-2,0-3.9,0-5.8c-6,0-11.9,0-17.9,0c0,1.9,0,3.8,0,5.9
		c1.9,0,3.9,0,5.9,0c0,2.1,0,4,0,6c-2,0-3.9,0-5.9,0c0-2,0-3.9,0-5.9c-2,0-3.9,0-6,0c0-2.1,0-4,0-6c-8.1,0-16,0-23.9,0
		c0,4,0,7.9,0,11.9c2,0,3.9,0,5.9,0c0,2.1,0,4,0,6c-2,0-3.9,0-5.9,0c0,2,0,3.9,0,5.9c-2,0-4,0-6,0c0-1.9,0-3.8,0-5.9
		c1.9,0,3.8,0,5.8,0c0-2.1,0-4,0-6c-2,0-3.9,0-5.9,0c0-2.1,0-4,0-5.9c-2,0-3.9,0-5.9,0c0,3.9,0,7.8,0,11.9c-2,0-4,0-6,0
		c0,2.1,0,4,0,6c2,0,3.9,0,5.9,0c0,2.1,0,4,0,6c2,0,3.9,0,5.9,0c0,2,0,3.9,0,5.9c2,0,4,0,6,0c0-1.9,0-3.8,0-5.8c2.1,0,4,0,6,0
		c0,2,0,3.9,0,5.8c4,0,7.9,0,11.9,0c0-1.9,0-3.8,0-5.9c-1.9,0-3.8,0-5.8,0c0-2.1,0-4,0-6c1.9,0,3.9,0,5.9,0c0-4.1,0-8,0-12
		c-2,0-3.9,0-5.9,0c0-2,0-3.9,0-5.9c1.9,0,3.9,0,5.9,0c0,1.9,0,3.8,0,5.8c2.1,0,4,0,6,0c0,4.1,0,8,0,12c-1.9,0-3.9,0-5.9,0
		c0,2.1,0,4,0,6c2,0,3.9,0,5.9,0c0,2,0,3.9,0,6c4.1,0,8,0,12,0c0,2.1,0,4,0,6c-1.9,0-3.9,0-5.9,0c0,6.1,0,12,0,18c2,0,3.9,0,5.9,0
		c0,2,0,3.9,0,6c6.1,0,12,0,18,0c0,4.1,0,8,0,12c-5.9,0-11.9,0-17.9,0c0,2.1,0,4,0,6c2,0,3.9,0,5.8,0c0,2,0,3.9,0,6
		c-3.9,0-7.8,0-11.8,0c0,2.1,0,4,0,6c2,0,3.9,0,5.9,0c0,2.1,0,4,0,5.9c2,0,3.9,0,5.9,0c0-1.9,0-3.8,0-5.9c2,0,4,0,6,0
		c0-4.1,0-8,0-12c2.1,0,4,0,6,0c0,6,0,11.9,0,17.9c-4,0-7.9,0-11.9,0c0,2,0,4,0,6c-2.1,0-4,0-5.9,0c0,2,0,3.9,0,6
		C261.9,267,267.9,267,273.9,267z M244,129.1c4,0,7.9,0,12,0c0,2,0,3.9,0,5.8c4,0,8,0,11.9,0c0-4,0-7.9,0-12c-2,0-3.9,0-6,0
		c0-2.1,0-4,0-5.9c-2,0-3.9,0-5.9,0c0,2,0,3.9,0,5.8c-2.1,0-4,0-6,0c0-2,0-3.9,0-5.8c-2,0-4,0-6,0c0,2,0,3.9,0,5.9
		c-8,0-15.9,0-23.9,0c0,4,0,8,0,12c2,0,3.9,0,5.9,0c0,4,0,7.9,0,12c6,0,12,0,18,0c0,2.1,0,4,0,5.9c2,0,3.9,0,5.9,0c0-4,0-7.9,0-12
		c-2,0-3.9,0-5.9,0C244,137,244,133.1,244,129.1z M111.8,111c0-2.1,0-4,0-5.9c-4,0-7.9,0-11.9,0c0,2,0,3.9,0,5.9c2,0,3.9,0,5.9,0
		c0,2.1,0,4,0,6c-2,0-3.9,0-5.8,0c0,2,0,4,0,6c2,0,3.9,0,5.8,0c0,4,0,7.9,0,12c-2,0-3.9,0-5.9,0c0,2.1,0,4,0,5.9c4,0,7.9,0,11.9,0
		c0-4,0-7.9,0-12c2.1,0,4,0,5.9,0c0-2.1,0-4,0-6c-2,0-3.9,0-5.8,0c0-2,0-3.9,0-6c2,0,3.9,0,5.9,0c0-2.1,0-4,0-6
		C115.8,111,113.9,111,111.8,111z M93.8,201c-4,0-7.9,0-12,0c0-2,0-3.9,0-5.8c-4,0-8,0-11.9,0c0,2,0,3.9,0,5.9c2,0,3.9,0,5.9,0
		c0,2,0,4,0,5.9c8.1,0,15.9,0,23.9,0c0-6,0-11.9,0-17.8c-6,0-11.9,0-17.8,0c0,2,0,3.9,0,5.9c4,0,7.9,0,11.9,0
		C93.8,197.1,93.8,199,93.8,201z M243.8,207.1c0-6.1,0-12,0-18c-2,0-3.9,0-5.9,0c0,4,0,7.9,0,11.9c-2,0-4,0-6,0c0,2.1,0,4,0,6
		c-2,0-4,0-5.9,0c0,4.1,0,8,0,11.9c4,0,7.9,0,11.9,0c0-4,0-7.9,0-11.9C239.9,207.1,241.8,207.1,243.8,207.1z M243.8,225.1
		c-6,0-11.9,0-17.8,0c0,6,0,11.9,0,17.9c6,0,11.9,0,17.8,0C243.8,237,243.8,231.1,243.8,225.1z M129.9,237.1c-2.1,0-4,0-5.9,0
		c0,4,0,7.9,0,11.9c2,0,3.9,0,6,0c0,2.1,0,4,0,5.9c2,0,3.9,0,5.9,0c0-2,0-3.9,0-5.9c2,0,4,0,6,0c0-2.1,0-4,0-6c4,0,8,0,11.9,0
		c0-2.1,0-4,0-5.9c-6,0-11.9,0-18,0c0,2,0,3.9,0,5.8c-2.1,0-4,0-6,0C129.9,241,129.9,239.1,129.9,237.1z M87.9,117c0-2,0-3.9,0-5.8
		c-2,0-4,0-5.9,0c0,4,0,7.9,0,11.8c4,0,7.9,0,11.8,0c0-2,0-3.9,0-6C91.8,117,89.9,117,87.9,117z M93.9,165.1c-4,0-7.9,0-11.9,0
		c0,4,0,7.9,0,11.9c2,0,3.9,0,5.9,0c0-2,0-3.9,0-5.9c2,0,4,0,6,0C93.9,169,93.9,167.1,93.9,165.1z M226,111c2,0,3.9,0,6,0
		c0,2,0,4,0,5.9c2.1,0,4,0,5.9,0c0-4,0-7.9,0-11.8c-4,0-7.9,0-11.9,0C226,107.1,226,108.9,226,111z M112,69.1c0,4,0,7.9,0,11.9
		c2,0,3.9,0,5.8,0c0-4,0-7.9,0-11.9C115.8,69.1,114,69.1,112,69.1z M214,213.1c0,4,0,7.9,0,11.8c2,0,3.9,0,5.8,0c0-4,0-7.9,0-11.8
		C217.8,213.1,215.9,213.1,214,213.1z M250,231c2,0,3.9,0,5.9,0c0-4,0-7.9,0-11.8c-2,0-3.9,0-5.9,0C250,223.1,250,227,250,231z
		 M81.9,177.3c-2,0-4,0-5.9,0c0,4,0,7.9,0,11.8c2,0,3.9,0,5.9,0C81.9,185,81.9,181.1,81.9,177.3z M117.8,165c0-2,0-3.9,0-5.8
		c-4,0-7.9,0-11.8,0c0,2,0,3.9,0,5.8C110,165,113.9,165,117.8,165z M267.8,141.1c-4,0-7.9,0-11.8,0c0,2,0,3.9,0,5.8
		c4,0,7.9,0,11.8,0C267.8,145,267.8,143.1,267.8,141.1z M88,134.9c4,0,7.9,0,11.9,0c0-2,0-3.9,0-5.8c-4,0-7.9,0-11.9,0
		C88,131.1,88,132.9,88,134.9z M75.8,213c0-2,0-4,0-5.9c-2,0-3.9,0-5.8,0c0,2,0,3.9,0,5.9C72,213,73.8,213,75.8,213z M100,218.9
		c2,0,3.9,0,5.9,0c0-2,0-3.9,0-5.8c-2,0-3.9,0-5.9,0C100,215.1,100,217,100,218.9z M111.8,195.3c-2,0-3.9,0-5.8,0c0,2,0,3.9,0,5.8
		c2,0,3.9,0,5.8,0C111.8,199,111.8,197.1,111.8,195.3z M106,92.9c2,0,3.9,0,5.9,0c0-2,0-3.9,0-5.8c-2,0-3.9,0-5.9,0
		C106,89.1,106,91,106,92.9z M111.9,147.1c-2,0-3.9,0-5.9,0c0,2,0,3.9,0,5.8c2,0,3.9,0,5.9,0C111.9,151,111.9,149.1,111.9,147.1z
		 M93.8,105.1c-2,0-3.9,0-5.8,0c0,2,0,3.9,0,5.9c2,0,3.9,0,5.8,0C93.8,109,93.8,107.1,93.8,105.1z M118,213.1c0,2,0,3.9,0,5.9
		c2,0,3.9,0,5.8,0c0-2,0-3.9,0-5.9C121.8,213.1,119.9,213.1,118,213.1z M130,236.9c2,0,4,0,5.9,0c0-2,0-3.9,0-5.8c-2,0-3.9,0-5.9,0
		C130,233.1,130,235,130,236.9z M171.8,237c0-2,0-3.9,0-5.8c-2,0-3.9,0-5.8,0c0,2,0,3.9,0,5.8C167.9,237,169.8,237,171.8,237z
		 M219.8,237c0-2,0-3.9,0-5.8c-2,0-3.9,0-5.9,0c0,2,0,3.9,0,5.8C215.9,237,217.8,237,219.8,237z M118,140.9c2,0,3.9,0,5.9,0
		c0-2,0-3.9,0-5.8c-2,0-3.9,0-5.9,0C118,137.1,118,139,118,140.9z M202,129.1c0,2,0,3.9,0,5.8c2,0,3.9,0,5.8,0c0-2,0-3.9,0-5.8
		C205.8,129.1,203.9,129.1,202,129.1z M123.8,111c0-2,0-4,0-5.9c-2,0-3.9,0-5.8,0c0,2,0,3.9,0,5.9C120,111,121.8,111,123.8,111z
		 M99.8,116.9c0-2,0-3.9,0-5.8c-2,0-3.9,0-5.8,0c0,2,0,3.9,0,5.8C95.9,116.9,97.8,116.9,99.8,116.9z M214,249c2,0,3.9,0,5.9,0
		c0-2,0-3.9,0-5.8c-2,0-3.9,0-5.9,0C214,245.1,214,247,214,249z M225.8,195c0-2,0-3.9,0-5.8c-2,0-3.9,0-5.8,0c0,2,0,3.9,0,5.8
		C221.9,195,223.8,195,225.8,195z M153.8,249.1c-2,0-3.9,0-5.8,0c0,2,0,3.9,0,5.9c2,0,3.9,0,5.8,0
		C153.8,253,153.8,251.1,153.8,249.1z M244,255c2,0,3.9,0,5.9,0c0-2,0-3.9,0-5.8c-2,0-3.9,0-5.9,0C244,251.1,244,253,244,255z
		 M141.8,255.1c-2,0-3.9,0-5.8,0c0,2,0,3.9,0,5.9c2,0,3.9,0,5.8,0C141.8,259,141.8,257.1,141.8,255.1z M243.8,261c0-2,0-3.9,0-5.8
		c-2,0-3.9,0-5.8,0c0,2,0,3.9,0,5.8C239.9,261,241.8,261,243.8,261z M207.8,159c0-2,0-4,0-5.9c-2,0-3.9,0-5.8,0c0,2,0,3.9,0,5.9
		C204,159,205.8,159,207.8,159z M226,200.9c2,0,3.9,0,5.9,0c0-2,0-3.9,0-5.8c-2,0-3.9,0-5.9,0C226,197.1,226,199,226,200.9z
		 M154,249c2,0,3.9,0,5.9,0c0-2,0-3.9,0-5.8c-2,0-3.9,0-5.9,0C154,245.1,154,247,154,249z"/>
	<path d="M207.9,69c0,2.2,0,4,0,6c-2,0-3.9,0-5.9,0c0,6,0,11.9,0,18c-2,0-4,0-6,0c0,2.1,0,4,0,6c-2,0-4,0-6,0c0,2.1,0,4,0,6
		c2,0,3.9,0,5.8,0c0,2,0,3.9,0,6c-1.9,0-3.8,0-5.8,0c0,2.1,0,4,0,6c2,0,3.9,0,5.9,0c0,2.1,0,4,0,6c-4,0-7.9,0-11.9,0
		c0,2,0,3.9,0,5.9c-2.1,0-4,0-6,0c0-1.9,0-3.8,0-5.8c-2,0-4,0-6,0c0,2,0,3.9,0,5.8c-2.1,0-4,0-6,0c0-2,0-3.9,0-5.9c-2,0-3.9,0-5.9,0
		c0-2,0-3.9,0-6c1.9,0,3.8,0,5.9,0c0-2.1,0-4,0-6c2,0,3.9,0,6,0c0-4,0-8,0-12c4.1,0,8,0,12,0c0-4,0-8,0-12c-2,0-3.9,0-5.9,0
		c0,2,0,3.9,0,5.8c-2.1,0-4,0-6,0c0-2,0-3.9,0-5.8c-2,0-3.9,0-6,0c0,1.9,0,3.9,0,5.9c-2.1,0-4,0-6,0c0,2,0,3.9,0,6
		c1.9,0,3.9,0,5.9,0c0,2.1,0,4,0,6c-4,0-7.9,0-12,0c0-2,0-3.9,0-5.8c-2,0-3.9,0-5.9,0c0,1.9,0,3.8,0,5.9c-2,0-4,0-6,0c0,2.1,0,4,0,6
		c1.9,0,3.8,0,5.8,0c0,4.1,0,8,0,12c-3.9,0-7.8,0-11.8,0c0-7.9,0-15.8,0-23.9c1.9,0,3.8,0,5.8,0c0-2.1,0-4,0-6c-1.9,0-3.9,0-5.9,0
		c0-4.1,0-8,0-12c1.9,0,3.8,0,5.9,0c0-4,0-8,0-12c4.1,0,8,0,12,0c0-2,0-3.9,0-5.9c4,0,8,0,12,0c0,1.9,0,3.8,0,5.9c6.1,0,12,0,18,0
		c0,2.1,0,4,0,5.9c2,0,3.9,0,5.9,0c0-1.9,0-3.8,0-5.9c2,0,4,0,6,0c0-2.1,0-4,0-6c2,0,4,0,6,0c0,1.9,0,3.8,0,5.9
		C204,69,205.9,69,207.9,69z M147.9,93c0-2,0-3.9,0-5.9c2.1,0,4,0,6,0c0,2,0,3.9,0,5.8c2,0,4,0,6,0c0-2,0-3.9,0-5.9c2,0,3.9,0,5.9,0
		c0-4.1,0-8,0-11.9c-2,0-3.9,0-5.9,0c0,2,0,3.9,0,5.9c-6,0-12,0-17.9,0c0,4.1,0,8,0,11.9C144,93,145.9,93,147.9,93z M195.8,93
		c0-4,0-7.9,0-11.8c-4,0-7.9,0-11.8,0c0,2,0,3.9,0,5.9c2,0,3.9,0,6,0c0,2.1,0,4,0,5.9C192,93,193.9,93,195.8,93z M189.9,105.1
		c-4,0-8,0-11.9,0c0,2,0,3.9,0,5.8c4,0,7.9,0,11.9,0C189.9,108.9,189.9,107.1,189.9,105.1z M172,80.9c2,0,3.9,0,5.9,0
		c0-2,0-3.9,0-5.8c-2,0-3.9,0-5.9,0C172,77.1,172,79,172,80.9z M172,111.1c0,2,0,3.9,0,5.9c2,0,3.9,0,5.8,0c0-2,0-3.9,0-5.9
		C175.8,111.1,174,111.1,172,111.1z"/>
	<path d="M93.9,92.9c-14,0-27.9,0-41.9,0c0-14,0-27.9,0-41.9c14,0,27.9,0,41.9,0C93.9,65.1,93.9,79,93.9,92.9z M87.8,86.9
		c0-10,0-19.9,0-29.8c-10,0-19.9,0-29.8,0c0,10,0,19.9,0,29.8C67.9,86.9,77.8,86.9,87.8,86.9z"/>
	<path d="M232,51.1c14,0,27.9,0,41.9,0c0,14,0,27.9,0,41.9c-14,0-27.9,0-41.9,0C232,79,232,65.1,232,51.1z M267.8,57.1
		c-10,0-19.9,0-29.8,0c0,10,0,19.9,0,29.9c10,0,19.9,0,29.8,0C267.8,77,267.8,67.1,267.8,57.1z"/>
	<path d="M52,231.1c14,0,27.9,0,41.9,0c0,14,0,27.9,0,41.9c-14,0-27.9,0-41.9,0C52,259,52,245.1,52,231.1z M87.8,267
		c0-10,0-19.9,0-29.8c-10,0-19.9,0-29.8,0c0,10,0,19.9,0,29.8C67.9,267,77.8,267,87.8,267z"/>
	<path d="M267.9,200.9c0-2,0-3.9,0-5.9c-2,0-3.9,0-6,0c0-4.1,0-8,0-12c-4,0-8,0-11.9,0c0-4,0-7.9,0-11.9c3.9,0,7.9,0,11.9,0
		c0-2.1,0-4,0-6c4,0,8,0,12,0c0,3.9,0,7.8,0,11.8c-1.9,0-3.9,0-5.9,0c0-1.9,0-3.8,0-5.8c-2,0-3.9,0-5.9,0c0,3.9,0,7.8,0,11.9
		c1.9,0,3.8,0,5.9,0c0,4.1,0,8,0,12c2.1,0,4,0,5.9,0c0,2,0,3.9,0,5.9C271.9,200.9,270,200.9,267.9,200.9z"/>
	<path d="M64,141c2,0,3.9,0,5.8,0c0,2,0,3.9,0,5.9c-1.9,0-3.8,0-5.9,0c0-1.9,0-3.8,0-5.8c-2,0-4,0-6,0c0,1.9,0,3.8,0,5.8
		c-2.1,0-4,0-6,0c0-4,0-7.9,0-11.9c2,0,3.9,0,5.9,0c0-2,0-3.9,0-5.9c4,0,8,0,12,0c0,1.9,0,3.8,0,5.9c-1.9,0-3.9,0-5.9,0
		C64,137.1,64,139,64,141z"/>
	<path d="M69.8,117c-2,0-3.9,0-5.9,0c0-1.9,0-3.8,0-5.9c-4.1,0-8,0-12,0c0-4.1,0-8,0-12c3.9,0,7.9,0,11.9,0c0,3.9,0,7.8,0,11.9
		c2,0,4,0,5.9,0C69.8,113.1,69.8,115,69.8,117z"/>
	<path d="M202,56.9c0-2,0-3.8,0-5.8c8,0,15.9,0,23.9,0c0,1.9,0,3.8,0,5.8C217.9,56.9,210,56.9,202,56.9z"/>
	<path d="M189.8,62.9c-2,0-3.9,0-5.9,0c0-2,0-3.9,0-5.9c-4,0-8,0-11.9,0c0-2,0-3.9,0-5.9c5.9,0,11.9,0,17.9,0
		C189.8,55,189.8,58.9,189.8,62.9z"/>
	<path d="M123.8,261.3c0,2,0,3.9,0,5.9c-2,0-3.9,0-5.9,0c0,2,0,3.9,0,5.9c-2,0-4,0-6,0c0-3.9,0-7.8,0-11.8
		C115.9,261.3,119.8,261.3,123.8,261.3z"/>
	<path d="M219.9,69c0,2.1,0,3.9,0,5.9c-2,0-3.9,0-5.9,0c0-3.9,0-7.8,0-11.8c3.9,0,7.8,0,11.8,0c0,1.9,0,3.8,0,5.9
		C223.9,69,222,69,219.9,69z"/>
	<path d="M153.8,195.1c0,4,0,7.9,0,11.8c-2,0-3.9,0-5.9,0c0-2,0-3.9,0-5.9c-2.1,0-4,0-5.9,0c0-2,0-3.9,0-5.9
		C145.9,195.1,149.8,195.1,153.8,195.1z"/>
	<path d="M118,189.1c0-2.1,0-4,0-5.9c4,0,7.9,0,11.9,0c0,3.9,0,7.8,0,11.8c-1.9,0-3.9,0-5.9,0c0-1.9,0-3.8,0-5.9
		C121.9,189.1,120,189.1,118,189.1z"/>
	<path d="M100,273c0-3.9,0-7.8,0-11.8c2,0,3.9,0,5.9,0c0,3.9,0,7.8,0,11.8C103.9,273,102,273,100,273z"/>
	<path d="M154,56.9c0-2,0-3.9,0-5.8c2,0,3.9,0,5.9,0c0,2,0,3.9,0,5.8C157.9,56.9,155.9,56.9,154,56.9z"/>
	<path d="M267.8,213c-2,0-3.9,0-5.9,0c0-2,0-3.9,0-5.8c1.9,0,3.9,0,5.9,0C267.8,209.1,267.8,211,267.8,213z"/>
	<path d="M195.9,201c-2,0-3.9,0-5.9,0c0-2,0-3.9,0-5.8c2,0,3.9,0,5.9,0C195.9,197.1,195.9,199,195.9,201z"/>
	<path d="M52,183.1c2,0,3.9,0,5.9,0c0,2,0,3.9,0,5.8c-2,0-3.9,0-5.9,0C52,187,52,185.1,52,183.1z"/>
	<path d="M195.9,249.3c0,2,0,3.8,0,5.8c-2,0-3.9,0-5.9,0c0-1.9,0-3.8,0-5.8C191.9,249.3,193.8,249.3,195.9,249.3z"/>
	<path class="st0" d="M244,129.1c0,4,0,7.9,0,11.9c2,0,3.9,0,5.9,0c0,4,0,8,0,12c-2,0-3.9,0-5.9,0c0-1.9,0-3.8,0-5.9c-6,0-12,0-18,0
		c0-4.1,0-8,0-12c-2,0-3.9,0-5.9,0c0-4,0-8,0-12c7.9,0,15.8,0,23.9,0c0-2,0-3.9,0-5.9c2.1,0,4,0,6,0c0,1.9,0,3.8,0,5.8c2,0,4,0,6,0
		c0-2,0-3.9,0-5.8c2,0,3.9,0,5.9,0c0,1.9,0,3.8,0,5.9c2,0,4,0,6,0c0,4.1,0,8,0,12c-3.9,0-7.9,0-11.9,0c0-1.9,0-3.8,0-5.8
		C251.9,129.1,248,129.1,244,129.1z"/>
	<path class="st0" d="M111.8,111c2.1,0,4,0,6,0c0,2,0,3.9,0,6c-1.9,0-3.9,0-5.9,0c0,2.1,0,4,0,6c1.9,0,3.8,0,5.8,0c0,2,0,4,0,6
		c-1.9,0-3.8,0-5.9,0c0,4.1,0,8,0,12c-4.1,0-8,0-11.9,0c0-2,0-3.9,0-5.9c2,0,3.9,0,5.9,0c0-4.1,0-8,0-12c-1.9,0-3.8,0-5.8,0
		c0-2,0-4,0-6c2,0,3.9,0,5.8,0c0-2,0-3.9,0-6c-1.9,0-3.9,0-5.9,0c0-2.1,0-4,0-5.9c4,0,7.8,0,11.9,0C111.8,107,111.8,108.9,111.8,111
		z"/>
	<path class="st0" d="M93.8,201c0-1.9,0-3.8,0-5.9c-4,0-7.9,0-11.9,0c0-2.1,0-4,0-5.9c6,0,11.8,0,17.8,0c0,5.9,0,11.8,0,17.8
		c-7.9,0-15.8,0-23.9,0c0-1.9,0-3.9,0-5.9c-2.1,0-4,0-5.9,0c0-2,0-3.9,0-5.9c3.9,0,7.8,0,11.9,0c0,1.9,0,3.8,0,5.8
		C85.9,201,89.9,201,93.8,201z"/>
	<path class="st0" d="M243.8,207.1c-2,0-3.9,0-5.9,0c0,4,0,7.9,0,11.9c-4,0-7.9,0-11.9,0c0-3.9,0-7.8,0-11.9c1.9,0,3.8,0,5.9,0
		c0-2.1,0-4,0-6c2,0,4,0,6,0c0-4.1,0-8,0-11.9c2,0,3.9,0,5.9,0C243.8,195,243.8,201,243.8,207.1z"/>
	<path class="st0" d="M243.8,225.1c0,6,0,11.9,0,17.9c-6,0-11.9,0-17.8,0c0-6,0-11.9,0-17.9C232,225.1,237.8,225.1,243.8,225.1z
		 M237.8,237c0-2,0-3.9,0-5.8c-2,0-3.9,0-5.9,0c0,2,0,3.9,0,5.8C233.9,237,235.8,237,237.8,237z"/>
	<path class="st0" d="M129.9,237.1c0,2,0,3.8,0,5.8c2,0,3.9,0,6,0c0-1.9,0-3.8,0-5.8c6,0,12,0,18,0c0,1.9,0,3.8,0,5.9
		c-4,0-7.9,0-11.9,0c0,2.1,0,4,0,6c-2,0-4,0-6,0c0,2.1,0,4,0,5.9c-2,0-3.9,0-5.9,0c0-1.9,0-3.8,0-5.9c-2,0-4,0-6,0c0-4.1,0-8,0-11.9
		C125.9,237.1,127.8,237.1,129.9,237.1z"/>
	<path class="st0" d="M87.9,117c2,0,3.9,0,5.9,0c0,2,0,4,0,6c-3.9,0-7.8,0-11.8,0c0-3.9,0-7.8,0-11.8c1.9,0,3.8,0,5.9,0
		C87.9,113.1,87.9,115,87.9,117z"/>
	<path class="st0" d="M93.9,165.1c0,2,0,3.9,0,5.9c-2,0-3.9,0-6,0c0,2.1,0,4,0,5.9c-2,0-3.9,0-5.9,0c0-3.9,0-7.9,0-11.9
		C86,165.1,89.9,165.1,93.9,165.1z"/>
	<path class="st0" d="M226,111c0-2.1,0-3.9,0-5.9c4,0,7.9,0,11.9,0c0,3.9,0,7.8,0,11.8c-1.9,0-3.8,0-5.9,0c0-1.9,0-3.9,0-5.9
		C229.9,111,228,111,226,111z"/>
	<path class="st0" d="M112,69.1c2,0,3.9,0,5.8,0c0,3.9,0,7.9,0,11.9c-1.9,0-3.9,0-5.8,0C112,77,112,73.1,112,69.1z"/>
	<path class="st0" d="M214,213.1c1.9,0,3.8,0,5.8,0c0,3.9,0,7.8,0,11.8c-1.9,0-3.8,0-5.8,0C214,221,214,217.1,214,213.1z"/>
	<path class="st0" d="M250,231c0-3.9,0-7.8,0-11.8c2,0,3.9,0,5.9,0c0,3.9,0,7.8,0,11.8C253.9,231,252,231,250,231z"/>
	<path class="st0" d="M81.9,177.3c0,4,0,7.8,0,11.8c-2,0-3.9,0-5.9,0c0-3.9,0-7.8,0-11.8C77.9,177.3,79.8,177.3,81.9,177.3z"/>
	<path class="st0" d="M117.8,165c-3.9,0-7.8,0-11.8,0c0-1.9,0-3.9,0-5.8c3.9,0,7.8,0,11.8,0C117.8,161,117.8,163,117.8,165z"/>
	<path class="st0" d="M267.8,141.1c0,2,0,3.9,0,5.8c-4,0-7.9,0-11.8,0c0-1.9,0-3.8,0-5.8C259.9,141.1,263.8,141.1,267.8,141.1z"/>
	<path class="st0" d="M88,134.9c0-2,0-3.8,0-5.8c4,0,7.9,0,11.9,0c0,1.9,0,3.8,0,5.8C95.9,134.9,92,134.9,88,134.9z"/>
	<path class="st0" d="M75.8,213c-2,0-3.8,0-5.8,0c0-2,0-3.9,0-5.9c1.9,0,3.8,0,5.8,0C75.8,209,75.8,211,75.8,213z"/>
	<path class="st0" d="M100,218.9c0-1.9,0-3.8,0-5.8c2,0,3.9,0,5.9,0c0,1.9,0,3.8,0,5.8C103.9,218.9,102,218.9,100,218.9z"/>
	<path class="st0" d="M111.8,195.3c0,2,0,3.9,0,5.8c-2,0-3.9,0-5.8,0c0-1.9,0-3.8,0-5.8C107.9,195.3,109.8,195.3,111.8,195.3z"/>
	<path class="st0" d="M106,92.9c0-1.9,0-3.8,0-5.8c1.9,0,3.9,0,5.9,0c0,1.9,0,3.8,0,5.8C109.9,92.9,108,92.9,106,92.9z"/>
	<path class="st0" d="M111.9,147.1c0,2,0,3.8,0,5.8c-2,0-3.9,0-5.9,0c0-1.9,0-3.8,0-5.8C107.9,147.1,109.8,147.1,111.9,147.1z"/>
	<path class="st0" d="M93.8,105.1c0,2,0,3.9,0,5.9c-2,0-3.9,0-5.8,0c0-2,0-3.9,0-5.9C90,105.1,91.8,105.1,93.8,105.1z"/>
	<path class="st0" d="M118,213.1c1.9,0,3.8,0,5.8,0c0,1.9,0,3.9,0,5.9c-1.9,0-3.8,0-5.8,0C118,217,118,215.1,118,213.1z"/>
	<path class="st0" d="M130,236.9c0-2,0-3.8,0-5.8c2,0,3.9,0,5.9,0c0,1.9,0,3.8,0,5.8C133.9,236.9,132,236.9,130,236.9z"/>
	<path class="st0" d="M171.8,237c-2,0-3.9,0-5.8,0c0-2,0-3.9,0-5.8c1.9,0,3.8,0,5.8,0C171.8,233,171.8,235,171.8,237z"/>
	<path class="st0" d="M219.8,237c-2,0-3.9,0-5.9,0c0-2,0-3.9,0-5.8c2,0,3.9,0,5.9,0C219.8,233.1,219.8,235,219.8,237z"/>
	<path class="st0" d="M118,140.9c0-1.9,0-3.8,0-5.8c2,0,3.9,0,5.9,0c0,1.9,0,3.8,0,5.8C121.9,140.9,120,140.9,118,140.9z"/>
	<path class="st0" d="M202,129.1c1.9,0,3.8,0,5.8,0c0,1.9,0,3.8,0,5.8c-1.9,0-3.8,0-5.8,0C202,133,202,131.1,202,129.1z"/>
	<path class="st0" d="M123.8,111c-2,0-3.8,0-5.8,0c0-2,0-3.9,0-5.9c1.9,0,3.8,0,5.8,0C123.8,107,123.8,108.9,123.8,111z"/>
	<path class="st0" d="M99.8,116.9c-2,0-3.9,0-5.8,0c0-2,0-3.9,0-5.8c1.9,0,3.8,0,5.8,0C99.8,113,99.8,114.9,99.8,116.9z"/>
	<path class="st0" d="M214,249c0-2,0-3.9,0-5.8c2,0,3.9,0,5.9,0c0,1.9,0,3.8,0,5.8C217.9,249,216,249,214,249z"/>
	<path class="st0" d="M225.8,195c-2,0-3.9,0-5.8,0c0-2,0-3.9,0-5.8c2,0,3.8,0,5.8,0C225.8,191,225.8,193,225.8,195z"/>
	<path class="st0" d="M153.8,249.1c0,2,0,3.9,0,5.9c-2,0-3.9,0-5.8,0c0-2,0-3.9,0-5.9C150,249.1,151.8,249.1,153.8,249.1z"/>
	<path class="st0" d="M244,255c0-1.9,0-3.8,0-5.8c2,0,3.9,0,5.9,0c0,1.9,0,3.8,0,5.8C247.9,255,246,255,244,255z"/>
	<path class="st0" d="M141.8,255.1c0,2,0,3.9,0,5.9c-2,0-3.9,0-5.8,0c0-1.9,0-3.9,0-5.9C137.9,255.1,139.8,255.1,141.8,255.1z"/>
	<path class="st0" d="M243.8,261c-2,0-3.9,0-5.8,0c0-2,0-3.9,0-5.8c1.9,0,3.8,0,5.8,0C243.8,257,243.8,259,243.8,261z"/>
	<path class="st0" d="M207.8,159c-2,0-3.8,0-5.8,0c0-2,0-3.9,0-5.9c1.9,0,3.8,0,5.8,0C207.8,155,207.8,157,207.8,159z"/>
	<path class="st0" d="M226,200.9c0-1.9,0-3.8,0-5.8c2,0,3.9,0,5.9,0c0,1.9,0,3.8,0,5.8C229.9,200.9,228,200.9,226,200.9z"/>
	<path class="st0" d="M154,249c0-1.9,0-3.8,0-5.8c1.9,0,3.9,0,5.9,0c0,1.9,0,3.8,0,5.8C157.9,249,156,249,154,249z"/>
	<path class="st0" d="M147.9,93c-2,0-3.9,0-5.9,0c0-3.9,0-7.8,0-11.9c5.9,0,11.9,0,17.9,0c0-2.1,0-4,0-5.9c2,0,3.9,0,5.9,0
		c0,3.9,0,7.9,0,11.9c-2,0-3.9,0-5.9,0c0,2,0,3.9,0,5.9c-2,0-4,0-6,0c0-2,0-3.9,0-5.8c-2.1,0-4,0-6,0C147.9,89.1,147.9,91,147.9,93z
		"/>
	<path class="st0" d="M195.8,93c-2,0-3.8,0-5.9,0c0-2,0-3.9,0-5.9c-2,0-4,0-6,0c0-2.1,0-4,0-5.9c4,0,7.9,0,11.8,0
		C195.8,85,195.8,89,195.8,93z"/>
	<path class="st0" d="M189.9,105.1c0,2,0,3.8,0,5.8c-4,0-7.9,0-11.9,0c0-1.9,0-3.8,0-5.8C181.9,105.1,185.8,105.1,189.9,105.1z"/>
	<path class="st0" d="M172,80.9c0-1.9,0-3.8,0-5.8c1.9,0,3.9,0,5.9,0c0,1.9,0,3.8,0,5.8C175.9,80.9,174,80.9,172,80.9z"/>
	<path class="st0" d="M172,111.1c1.9,0,3.8,0,5.8,0c0,2,0,3.9,0,5.9c-1.9,0-3.8,0-5.8,0C172,115,172,113.1,172,111.1z"/>
	<path class="st0" d="M87.8,86.9c-10,0-19.9,0-29.8,0c0-10,0-19.9,0-29.8c10,0,19.8,0,29.8,0C87.8,67,87.8,76.9,87.8,86.9z M64,63.1
		c0,6,0,11.9,0,17.9c6,0,11.9,0,17.9,0c0-6,0-11.9,0-17.9C75.9,63.1,70,63.1,64,63.1z"/>
	<path class="st0" d="M267.8,57.1c0,10,0,19.9,0,29.9c-10,0-19.9,0-29.8,0c0-10,0-19.9,0-29.9C248,57.1,257.8,57.1,267.8,57.1z
		 M261.9,63.1c-6,0-12,0-17.9,0c0,6,0,11.9,0,17.8c6,0,11.9,0,17.9,0C261.9,75,261.9,69.1,261.9,63.1z"/>
	<path class="st0" d="M87.8,267c-10,0-19.9,0-29.8,0c0-10,0-19.9,0-29.8c9.9,0,19.8,0,29.8,0C87.8,247,87.8,257,87.8,267z M64,243.1
		c0,6,0,11.9,0,17.8c6,0,11.9,0,17.9,0c0-6,0-11.9,0-17.8C75.9,243.1,69.9,243.1,64,243.1z"/>
	<path d="M237.8,237c-2,0-3.9,0-5.9,0c0-2,0-3.9,0-5.8c1.9,0,3.9,0,5.9,0C237.8,233.1,237.8,235,237.8,237z"/>
	<path d="M64,63.1c6,0,11.9,0,17.9,0c0,6,0,11.9,0,17.9C76,81,70,81,64,81C64,75,64,69.1,64,63.1z"/>
	<path d="M261.9,63.1c0,6,0,11.8,0,17.8c-6,0-11.9,0-17.9,0c0-5.9,0-11.8,0-17.8C249.9,63.1,255.8,63.1,261.9,63.1z"/>
	<path d="M64,243.1c6,0,11.9,0,17.9,0c0,6,0,11.9,0,17.8c-6,0-11.9,0-17.9,0C64,255,64,249.1,64,243.1z"/>
</g>
<g id="OBJECTS">
	<g>
		<path class="st1" d="M176.6,139.6h-27.7c-4.7,0-8.5,3.8-8.5,8.5v27.7c0,4.7,3.8,8.5,8.5,8.5h27.7c4.7,0,8.5-3.8,8.5-8.5v-27.7
			C185.1,143.4,181.3,139.6,176.6,139.6z"/>
	</g>
	<g>
		<path class="st0" d="M183.6,158.6c0-3.3-2.7-6-6-6c-0.1,0-0.2,0-0.2,0c-0.1-0.4-0.2-0.7-0.4-1c-0.1-0.2-0.2-0.4-0.4-0.6
			c-0.2-0.3-0.3-0.6-0.5-0.9c-0.2-0.2-0.3-0.4-0.5-0.6s-0.4-0.5-0.6-0.7s-0.4-0.3-0.6-0.5c-0.3-0.2-0.5-0.4-0.8-0.6
			c-0.2-0.1-0.5-0.2-0.7-0.4c-0.3-0.2-0.6-0.3-0.9-0.4s-0.5-0.2-0.8-0.2c-0.3-0.1-0.6-0.2-0.9-0.3c-0.3-0.1-0.6-0.1-0.9-0.1
			s-0.6-0.1-1-0.1h-0.1c-3.5,0-6.5,1.9-8.1,4.6c-0.3-0.3-0.7-0.6-1.1-0.8c-0.1-0.1-0.3-0.1-0.4-0.2c-0.3-0.1-0.5-0.3-0.8-0.4
			c-0.2-0.1-0.4-0.1-0.5-0.2c-0.3-0.1-0.5-0.2-0.8-0.2c-0.2,0-0.4,0-0.6-0.1c-0.2,0-0.5-0.1-0.7-0.1c-0.1,0-0.2,0-0.2,0
			c-3.8,0.1-6.9,2.9-7.1,6.5c0,0.8,0,1.5,0.2,2.2c-0.7,0.5-1.3,1-1.8,1.6c-0.3,0.3-0.5,0.6-0.7,0.9c-0.5,0.6-0.8,1.3-1.1,2.1
			c-0.4,1.1-0.7,2.3-0.7,3.5c0,5.5,4.7,10,10.5,10h0.1c0.3,0,0.6,0,0.9-0.1c0.2,0,0.5,0,0.7-0.1c0.3,0,0.6-0.1,1-0.2
			c0.2,0,0.4-0.1,0.6-0.1c0.3-0.1,0.7-0.2,1-0.4c0.2-0.1,0.3-0.1,0.5-0.2c0.5-0.2,0.9-0.5,1.4-0.7c0.3,0.3,0.6,0.7,0.9,1
			c0.1,0.1,0.2,0.2,0.3,0.3c0.2,0.2,0.4,0.4,0.7,0.6c0.1,0.1,0.3,0.2,0.4,0.3c0.2,0.2,0.4,0.3,0.7,0.5c0.2,0.1,0.3,0.2,0.5,0.3
			c0.2,0.1,0.5,0.3,0.7,0.4s0.3,0.1,0.5,0.2c0.3,0.1,0.6,0.2,0.8,0.3c0.2,0,0.3,0.1,0.5,0.1c0.4,0.1,0.7,0.2,1.1,0.2
			c0.1,0,0.2,0,0.2,0c0.4,0.1,0.9,0.1,1.3,0.1h0.1c0.5,0,1.1,0,1.7-0.1s1.1-0.2,1.7-0.4c1.6-0.5,3-1.3,4.2-2.4
			c1.5-1.5,2.6-3.4,3-5.5c0.3-1.9,0.1-3.7-0.6-5.3C181.6,163.8,183.6,161.4,183.6,158.6z"/>
		<circle class="st1" cx="177.6" cy="158.6" r="3.4"/>
		<g>
			<path class="st1" d="M163,168.8h-2.8l-4.6-8.9h-0.1c0.1,1.6,0.1,2.7,0.1,3.4v5.5h-2V157h2.8l4.6,8.8h0.1
				c-0.1-1.5-0.1-2.6-0.1-3.2V157h2V168.8L163,168.8z"/>
			<path class="st1" d="M171.9,165.5c0,1.1-0.3,1.9-1,2.5s-1.6,0.9-2.9,0.9c-1.1,0-2.1-0.2-3-0.7v-2.3c0.7,0.4,1.3,0.6,1.8,0.8
				c0.5,0.1,0.9,0.2,1.4,0.2s0.9-0.1,1.1-0.3c0.3-0.2,0.4-0.5,0.4-0.9c0-0.2-0.1-0.4-0.2-0.6s-0.3-0.3-0.5-0.5s-0.7-0.4-1.4-0.8
				c-0.6-0.3-1.1-0.7-1.5-1c-0.3-0.3-0.6-0.7-0.8-1.1c-0.2-0.4-0.3-0.9-0.3-1.4c0-1,0.3-1.9,0.9-2.4c0.6-0.6,1.5-0.9,2.6-0.9
				c0.6,0,1.1,0.1,1.6,0.2s1,0.3,1.6,0.6l-0.7,1.9c-0.6-0.3-1-0.4-1.4-0.5s-0.7-0.2-1.1-0.2s-0.8,0.1-1,0.3
				c-0.2,0.2-0.3,0.5-0.3,0.9c0,0.2,0,0.4,0.1,0.6s0.2,0.3,0.4,0.5c0.2,0.2,0.7,0.4,1.4,0.8c1,0.5,1.7,1.1,2,1.6
				C171.6,164.1,171.9,164.8,171.9,165.5z"/>
		</g>
	</g>
</g>
</svg>
